# xmcd CD database file
# Copyright (C) 1993-1996 Ti Kan
#
# Track frame offsets:
#	150
#	13062
#	29652
#	42317
#
# Disc length: 771 seconds
#
# Revision: 1
# Processed by: cddbd v1.4b41PL1 Copyright (c) Steve Scherf et al.
# Submitted via: CDValet v3.01 - Copyright (c) 1997 Greg Leichner
#
DISCID=2e030104
DTITLE=Bill Engvall - John M. Montgomery - Warning Signs
DYEAR=1900
DGENRE=
TTITLE0=Warning Signs
TTITLE1=Here's Your Sign /Travis Tritt
TTITLE2=Baby Barf and the Turkey Hunt
TTITLE3=Here's Your Sign ( NEW) /Travis Tritt
EXTD=
EXTT0=
EXTT1=
EXTT2=
EXTT3=
PLAYORDER=
